<svg xmlns="http://www.w3.org/2000/svg" width="37" height="38" viewBox="0 0 37 38" fill="none"><path d="M26.8834 24.6477C26.9357 24.692 26.976 24.7283 27.0002 24.7484C25.9489 25.9165 24.7406 26.9355 23.4155 27.7813C22.8516 27.737 19.3877 27.2778 15.0578 23.0245C10.7844 18.6745 10.3373 15.2026 10.293 14.6628C11.1388 13.3377 12.1578 12.1294 13.3259 11.0781C13.3501 11.1023 13.3863 11.1426 13.4306 11.1909C14.3248 12.4153 15.0981 13.7203 15.7345 15.0978C15.5291 15.3073 15.3076 15.5006 15.078 15.6859C14.7235 15.9558 14.3973 16.2659 14.1032 16.6042L13.9462 16.8217L13.9905 17.0876C14.1274 17.6797 14.3369 18.2516 14.6107 18.7913C15.6016 20.8253 17.2449 22.4687 19.283 23.4595C19.8227 23.7374 20.3946 23.9469 20.9867 24.0838L21.2526 24.1322L21.4701 23.9751C21.8084 23.681 22.1185 23.3548 22.3924 22.9963C22.5938 22.7547 22.8637 22.4324 22.9644 22.3438C24.3459 22.9762 25.6589 23.7495 26.8834 24.6477Z" fill="#00E3B6"></path><path d="M27.7131 23.6611C28.0756 23.9148 28.3011 24.3216 28.3333 24.7607C28.3333 25.8804 24.1847 29.0785 23.4879 29.0785C23.4476 29.0785 19.3192 29.018 14.1475 23.935C9.06042 18.7593 9 14.6308 9 14.5905C9 13.8937 12.1981 9.74512 13.3178 9.74512C13.7568 9.77734 14.1636 10.0069 14.4174 10.3654C14.4456 10.4016 17.2086 14.2643 17.0274 15.3075C16.9388 15.811 16.5964 16.101 15.9117 16.6729C15.7989 16.7696 15.5331 16.9911 15.3438 17.1643C15.4606 17.5308 15.6056 17.8853 15.7788 18.2276C16.6447 20.0039 18.0786 21.4378 19.8508 22.2997C20.1932 22.4689 20.5517 22.6139 20.9142 22.7347C21.0874 22.5454 21.3089 22.2796 21.4015 22.1708C21.9775 21.4821 22.2675 21.1397 22.771 21.0511C23.8182 20.8698 27.6768 23.6329 27.7131 23.6611ZM27.0001 24.7526C26.976 24.7285 26.9357 24.6962 26.8833 24.6519C25.6589 23.7537 24.3458 22.9804 22.9643 22.344C22.8636 22.4366 22.5938 22.7548 22.3924 22.9965C22.1185 23.355 21.8124 23.6812 21.47 23.9753L21.2525 24.1323L20.9867 24.084C20.3946 23.9471 19.8226 23.7376 19.2829 23.4597C17.2489 22.4689 15.6015 20.8255 14.6107 18.7915C14.3328 18.2518 14.1233 17.6798 13.9904 17.0878L13.9461 16.8219L14.1032 16.6044C14.3972 16.2661 14.7235 15.96 15.0779 15.6861C15.3075 15.5048 15.525 15.3075 15.7344 15.098C15.0981 13.7205 14.3288 12.4155 13.4306 11.1911C13.3863 11.1387 13.354 11.1025 13.3258 11.0783C12.1578 12.1296 11.1388 13.3379 10.2929 14.663C10.3372 15.2028 10.7843 18.6747 15.0578 23.0287C19.3876 27.2821 22.8515 27.7412 23.4154 27.7855C24.7406 26.9397 25.9489 25.9207 27.0001 24.7526Z" fill="#3D4242"></path><circle cx="18.5" cy="19.2451" r="18" stroke="#CFCFCF"></circle></svg>