<svg xmlns="http://www.w3.org/2000/svg" width="37" height="38" viewBox="0 0 37 38" fill="none"><path d="M11.7793 14.7734H25.7757C25.2786 15.274 19.4187 21.151 19.1753 21.3945C18.973 21.5968 18.5786 21.5968 18.3798 21.3945L11.7793 14.7734Z" fill="#00E3B6"></path><path d="M27.5556 15.2881V24.5459C27.5556 25.3997 26.8629 26.0889 26.0126 26.0889H11.543C10.6926 26.0889 10 25.3997 10 24.5459V15.2881C10 14.4377 10.6926 13.7451 11.543 13.7451H26.0126C26.8629 13.7451 27.5556 14.4343 27.5556 15.2881ZM26.5269 24.3573V15.4767L22.1003 19.917L26.5269 24.3573ZM25.776 25.0602L21.3768 20.6473L19.9059 22.1217C19.3024 22.7252 18.2532 22.7252 17.6531 22.1217L16.1822 20.6473L11.7796 25.0602H25.776ZM25.776 14.7738H11.7796L18.38 21.3948C18.5823 21.5971 18.9766 21.5971 19.1755 21.3948C19.4155 21.1514 25.2754 15.2744 25.776 14.7738ZM15.4553 19.917L11.0286 15.4767V24.3573L15.4553 19.917Z" fill="#3D4242"></path><circle cx="18.5" cy="19.2451" r="18" stroke="#CFCFCF"></circle></svg>