<svg xmlns="http://www.w3.org/2000/svg" width="475" height="90" viewBox="0 0 475 90" fill="none"><path d="M251.803 58.7319V0.927734H238.312V69.5876H283.09V58.7319H251.803Z" fill="#00C19D"></path><path d="M337.199 43.7938C337.199 28.67 326.865 18.6494 311.461 18.6494C295.961 18.6494 285.723 29.134 285.723 44.9072C285.723 60.3092 296.248 70.5154 312.035 70.5154C321.794 70.5154 329.927 66.2474 334.52 59.567L324.473 54.6494C321.412 58.268 317.106 60.5876 311.844 60.5876C304.285 60.5876 300.458 56.134 299.501 49.0824H336.816C337.007 47.5979 337.199 45.5567 337.199 43.7938ZM311.461 28.5772C318.446 28.5772 322.56 32.9381 323.517 40.5463H299.501C300.554 32.9381 304.572 28.5772 311.461 28.5772Z" fill="#00C19D"></path><path d="M366.027 18.6494C357.033 18.6494 350.527 20.7834 344.978 25.1443L350.623 32.5669C353.876 29.969 357.799 28.5772 362.678 28.5772C370.524 28.5772 375.116 32.5669 375.116 39.2474V40.1752C371.194 39.4329 367.271 39.0618 363.731 39.0618C350.527 39.0618 341.725 45.3711 341.725 55.0206C341.725 64.2989 348.9 70.5154 359.616 70.5154C365.931 70.5154 371.863 67.6392 375.308 62.4433L375.595 69.5876H388.129V38.134C388.129 26.3504 379.231 18.6494 366.027 18.6494ZM363.348 61.5154C358.086 61.5154 355.311 58.8247 355.311 54.7422C355.311 50.4742 359.234 47.6907 365.357 47.6907C368.323 47.6907 371.768 48.0618 375.116 48.7113C375.021 56.8763 369.376 61.5154 363.348 61.5154Z" fill="#00C19D"></path><path d="M429.285 18.6494C421.343 18.6494 415.603 21.804 411.967 27.0927L411.68 19.5772H399.146V90H412.158V62.3505C415.794 67.4536 421.439 70.5154 429.285 70.5154C443.158 70.5154 453.97 60.0309 453.97 44.3505C453.97 28.8556 443.158 18.6494 429.285 18.6494ZM426.319 59.6598C417.803 59.6598 412.158 53.6288 412.158 44.536C412.158 35.4432 417.803 29.4123 426.319 29.4123C434.738 29.4123 440.479 35.4432 440.479 44.4432C440.479 53.6288 434.738 59.6598 426.319 59.6598Z" fill="#00C19D"></path><path d="M58.5553 69.5876H73.0028L42.7683 0.927734H30.2344L0 69.5876H14.4475L20.1882 55.9484H52.8146L58.5553 69.5876ZM24.7808 45.0927L36.5492 17.1649L48.3177 45.0927H24.7808Z" fill="#3D4242"></path><path d="M111.842 19.5772V48.9896C111.842 55.3917 107.44 59.6598 100.839 59.6598C94.141 59.6598 89.6441 55.3917 89.6441 48.9896V19.5772H76.6318V50.9381C76.6318 62.7216 84.5732 70.5154 96.246 70.5154C102.752 70.5154 108.397 68.1031 112.129 63.4639L112.32 69.5876H124.854V19.5772H111.842Z" fill="#3D4242"></path><path d="M160.137 59.6598C155.927 59.6598 153.057 56.6907 153.057 52.1443V29.8762H168.27V19.5772H153.057V4.91743H140.044V19.5772H131.529V29.8762H140.044V54.7422C140.044 64.2062 146.455 70.5154 155.927 70.5154C160.52 70.5154 165.112 69.7732 169.035 68.1959V57.9897C166.069 59.1958 163.103 59.6598 160.137 59.6598Z" fill="#3D4242"></path><path d="M200.299 70.5154C216.755 70.5154 227.854 60.1237 227.854 44.536C227.854 29.0412 216.755 18.6494 200.299 18.6494C183.746 18.6494 172.648 29.0412 172.648 44.536C172.648 60.1237 183.746 70.5154 200.299 70.5154ZM200.299 59.6598C191.783 59.6598 186.138 53.6288 186.138 44.536C186.138 35.4432 191.783 29.4123 200.299 29.4123C208.718 29.4123 214.363 35.4432 214.363 44.536C214.363 53.6288 208.718 59.6598 200.299 59.6598Z" fill="#3D4242"></path><path d="M474.998 17.843V0H454.759L443.719 10.7058H462.118V30.3331L474.998 17.843Z" fill="#00C19D"></path></svg>